<?xml version="1.0" standalone="no"?>
<!DOCTYPE svg PUBLIC "-//W3C//DTD SVG 20010904//EN"
 "http://www.w3.org/TR/2001/REC-SVG-20010904/DTD/svg10.dtd">
<svg version="1.0" xmlns="http://www.w3.org/2000/svg"
 width="16px" height="16px" viewBox="0 0 1280.000000 1280.000000"
 preserveAspectRatio="xMidYMid meet">
<metadata>
Created by potrace 1.15, written by Peter Selinger 2001-2017
</metadata>
<g transform="translate(0.000000,1280.000000) scale(0.100000,-0.100000)"
fill="#7f7f7f" stroke="none">
<path d="M5740 12784 c-199 -42 -369 -198 -438 -399 l-27 -80 -3 -2387 -2
-2388 -2356 0 c-2619 0 -2435 5 -2584 -68 -104 -50 -212 -158 -263 -263 -66
-134 -67 -146 -67 -799 0 -651 2 -666 66 -795 69 -141 187 -243 344 -299 l85
-31 2387 -3 2388 -2 2 -2388 3 -2387 28 -80 c73 -206 239 -357 443 -400 101
-21 1207 -21 1308 0 204 43 370 194 443 400 l28 80 3 2387 2 2388 2388 2 2387
3 85 31 c157 56 275 158 344 299 64 129 66 144 66 795 0 653 -1 665 -67 799
-51 105 -159 213 -263 263 -149 73 35 68 -2584 68 l-2356 0 -2 2388 -3 2387
-27 80 c-70 203 -240 357 -443 400 -100 21 -1217 20 -1315 -1z"/>
</g>
</svg>
