<?xml version="1.0" standalone="no"?>
<!DOCTYPE svg PUBLIC "-//W3C//DTD SVG 20010904//EN"
 "http://www.w3.org/TR/2001/REC-SVG-20010904/DTD/svg10.dtd">
<svg version="1.0" xmlns="http://www.w3.org/2000/svg"
 width="16px" height="16px" viewBox="0 0 1009.000000 1280.000000"
 preserveAspectRatio="xMidYMid meet">
<metadata>
Created by potrace 1.15, written by Peter Selinger 2001-2017
</metadata>
<g transform="translate(0.000000,1280.000000) scale(0.100000,-0.100000)"
fill="#7f7f7f" stroke="none">
<path d="M56 9698 c-21 -100 -46 -417 -52 -663 -28 -1064 245 -2144 778 -3080
464 -815 1121 -1513 1908 -2028 407 -266 944 -524 1395 -671 586 -191 1103
-279 1715 -293 1513 -34 2933 488 4089 1504 l43 38 -2361 1249 -2361 1249 23
41 c13 22 70 130 126 238 101 195 103 197 139 203 331 56 563 400 487 723 -24
102 -62 171 -134 243 -124 123 -287 168 -456 124 -192 -51 -367 -231 -420
-435 -33 -125 -18 -286 35 -391 l19 -37 -124 -238 c-69 -132 -129 -238 -133
-237 -5 1 -703 369 -1553 819 -849 449 -1901 1005 -2337 1236 -436 230 -799
421 -807 424 -9 4 -16 -2 -19 -18z m930 -1213 c230 -129 421 -238 425 -242 4
-5 12 -109 19 -233 33 -682 137 -1221 356 -1845 88 -249 250 -645 453 -1105
l51 -115 -145 148 c-927 946 -1453 2039 -1559 3242 -13 142 -25 385 -20 385 1
0 190 -106 420 -235z"/>
<path d="M1945 3273 c-477 -1526 -743 -2240 -1139 -3057 l-105 -216 2507 6
c1379 4 2508 8 2510 9 1 1 -57 123 -130 271 -306 618 -602 1333 -830 2004
l-53 155 -157 31 c-752 150 -1373 398 -1948 779 -161 106 -320 223 -451 332
-42 35 -79 63 -81 63 -3 0 -58 -170 -123 -377z m460 -426 c88 -61 163 -113
168 -117 16 -14 -124 -446 -233 -720 -219 -547 -467 -1006 -749 -1380 -47 -63
-141 -171 -209 -240 l-122 -125 19 50 c11 28 86 212 166 410 304 747 516 1352
710 2025 31 107 58 201 60 208 6 16 -7 24 190 -111z"/>
</g>
</svg>
