<?xml version="1.0" standalone="no"?>
<!DOCTYPE svg PUBLIC "-//W3C//DTD SVG 20010904//EN"
 "http://www.w3.org/TR/2001/REC-SVG-20010904/DTD/svg10.dtd">
<svg version="1.0" xmlns="http://www.w3.org/2000/svg"
 width="16px" height="16px" viewBox="0 0 1280.000000 1112.000000"
 preserveAspectRatio="xMidYMid meet">
<metadata>
Created by potrace 1.15, written by Peter Selinger 2001-2017
</metadata>
<g transform="translate(0.000000,1112.000000) scale(0.100000,-0.100000)"
fill="#7f7f7f" stroke="none">
<path d="M6800 11114 c-377 -28 -726 -85 -1100 -182 -74 -19 -147 -37 -162
-40 -16 -2 -28 -8 -28 -12 0 -15 75 -17 125 -4 111 28 287 38 432 25 522 -48
1088 -272 1565 -621 149 -108 387 -349 471 -476 108 -163 158 -289 177 -449
17 -144 -5 -254 -84 -415 l-51 -105 0 -115 c0 -68 6 -136 14 -165 16 -57 65
-161 89 -188 15 -17 13 -20 -19 -51 -19 -19 -496 -457 -1060 -974 l-1027 -940
-778 675 c-429 371 -792 686 -807 699 l-28 24 45 182 c143 575 385 1555 388
1570 2 13 -68 59 -287 189 -1010 599 -1819 1082 -1970 1178 -66 41 -125 76
-132 77 -9 2 -360 -314 -635 -572 l-67 -63 527 -483 c668 -612 776 -711 834
-764 l46 -43 -60 -193 c-33 -106 -68 -220 -78 -253 -37 -121 -119 -381 -127
-404 -9 -23 -45 -33 -483 -147 -453 -118 -475 -123 -494 -106 -10 9 -328 299
-704 645 l-685 627 -26 -23 c-377 -343 -610 -560 -614 -571 -3 -8 146 -209
370 -497 386 -497 658 -851 1032 -1346 118 -156 220 -283 228 -283 13 0 79 11
328 55 50 9 141 25 203 36 61 10 163 28 225 39 61 10 164 28 227 39 63 11 167
29 230 40 63 11 167 29 230 40 63 11 169 30 235 41 66 12 143 25 170 30 l50 8
125 -122 c124 -122 951 -926 1023 -995 l37 -37 -437 -384 c-241 -212 -723
-636 -1073 -944 -349 -307 -833 -732 -1074 -945 -893 -785 -1227 -1078 -1452
-1277 -128 -112 -257 -231 -287 -264 -119 -129 -156 -274 -103 -413 29 -78 65
-135 138 -219 60 -69 902 -842 986 -905 70 -53 193 -114 292 -145 61 -19 97
-23 195 -23 139 0 196 14 294 72 63 38 150 121 1456 1383 226 218 489 472 585
565 170 164 292 281 1175 1135 629 609 863 832 870 831 5 0 815 -787 1415
-1376 124 -121 495 -484 825 -805 330 -322 787 -767 1015 -990 707 -689 743
-724 810 -772 135 -95 241 -147 390 -188 111 -31 343 -35 458 -7 255 61 473
205 633 417 53 69 132 234 153 320 71 280 -16 562 -241 781 -65 64 -3593 3128
-4362 3789 -132 113 -239 210 -239 215 0 6 276 262 612 570 336 308 806 738
1045 957 l433 397 78 -55 c91 -63 197 -115 290 -140 98 -27 313 -25 449 4 127
27 203 28 305 2 194 -49 340 -165 634 -503 l120 -138 -98 -95 c-79 -77 -103
-108 -131 -167 -32 -67 -34 -79 -34 -172 0 -85 4 -110 28 -170 53 -135 164
-252 302 -316 95 -45 158 -59 266 -59 111 0 192 22 273 74 51 33 892 795 973
882 132 141 149 356 43 535 -53 90 -161 189 -252 233 -104 49 -150 60 -263 60
-103 0 -164 -14 -249 -56 l-38 -19 -25 23 c-50 45 -196 225 -255 313 -33 50
-109 187 -168 305 -125 250 -150 295 -233 410 -100 140 -323 397 -428 495
-114 105 -508 474 -594 555 -131 124 -831 778 -890 831 -101 93 -231 192 -369
284 -420 279 -861 438 -1421 511 -116 15 -618 27 -745 18z m4361 -9815 c90
-25 181 -89 234 -161 59 -79 79 -143 79 -248 0 -77 -3 -92 -37 -161 -63 -132
-173 -213 -335 -247 -103 -21 -204 -7 -307 43 -87 42 -120 75 -146 150 -61
174 -17 416 100 547 50 57 105 84 191 96 80 11 135 6 221 -19z"/>
</g>
</svg>
