<?xml version="1.0" encoding="ISO-8859-1"?>
<!DOCTYPE svg PUBLIC "-//W3C//DTD SVG 1.1//EN" "http://www.w3.org/Graphics/SVG/1.1/DTD/svg11.dtd">
<!--
<svg xmlns="http://www.w3.org/2000/svg" viewBox="0 0 512 512" width="16px" height="16px">
<metadata>
Original source: https://github.com/FortAwesome/Font-Awesome/blob/master/svgs/regular/save.svg
</metadata>
<g transform="rotate(180 256 256)" fill="#7f7f7f" stroke="none">
<path transform="translate(32)" d="M433.941 129.941l-83.882-83.882A48 48 0 0 0 316.118 32H48C21.49 32 0 53.49 0 80v352c0 26.51 21.49 48 48 48h352c26.51 0 48-21.49 48-48V163.882a48 48 0 0 0-14.059-33.941zM272 80v80H144V80h128zm122 352H54a6 6 0 0 1-6-6V86a6 6 0 0 1 6-6h42v104c0 13.255 10.745 24 24 24h176c13.255 0 24-10.745 24-24V83.882l78.243 78.243a6 6 0 0 1 1.757 4.243V426a6 6 0 0 1-6 6zM224 232c-48.523 0-88 39.477-88 88s39.477 88 88 88 88-39.477 88-88-39.477-88-88-88zm0 128c-22.056 0-40-17.944-40-40s17.944-40 40-40 40 17.944 40 40-17.944 40-40 40z"/>
</g>
</svg>
-->
<svg version="1.0" xmlns="http://www.w3.org/2000/svg"
 width="16px" height="16px" viewBox="0 0 1250.000000 1280.000000"
 preserveAspectRatio="xMidYMid meet">
<metadata>
Created by potrace 1.15, written by Peter Selinger 2001-2017
</metadata>
<g transform="translate(0.000000,1280.000000) scale(0.100000,-0.100000)"
fill="#7f7f7f" stroke="none">
<path d="M0 6400 l0 -6400 6250 0 6250 0 -1 5368 0 5367 -1047 1032 -1047
1033 -5202 0 -5203 0 0 -6400z m9390 3555 l0 -1935 -3140 0 -3140 0 0 1935 0
1935 3140 0 3140 0 0 -1935z m1370 -6450 l0 -2455 -4510 0 -4510 0 0 2455 0
2455 4510 0 4510 0 0 -2455z"/>
<path d="M7210 9955 l0 -1205 695 0 695 0 0 1205 0 1205 -695 0 -695 0 0
-1205z"/>
<path d="M2650 4845 l0 -295 3600 0 3600 0 0 295 0 295 -3600 0 -3600 0 0
-295z"/>
<path d="M2652 3518 l3 -293 3595 0 3595 0 3 293 2 292 -3600 0 -3600 0 2
-292z"/>
<path d="M2650 2110 l0 -290 3600 0 3600 0 0 290 0 290 -3600 0 -3600 0 0
-290z"/>
</g>
</svg>